<?xml version="1.0" standalone="no"?><!DOCTYPE svg PUBLIC "-//W3C//DTD SVG 1.1//EN" "http://www.w3.org/Graphics/SVG/1.1/DTD/svg11.dtd"><svg t="1775200646846" class="icon" viewBox="0 0 1024 1024" version="1.1" xmlns="http://www.w3.org/2000/svg" p-id="5610" xmlns:xlink="http://www.w3.org/1999/xlink" width="200" height="200"><path d="M528.384 294.912l2.048 2.048 71.68 71.68c8.192 8.192 8.192 20.48 0 28.672-8.192 8.192-20.48 8.192-28.672 0l-43.008-43.008v196.608c0 12.288-8.192 20.48-20.48 20.48s-20.48-8.192-20.48-20.48v-196.608l-43.008 43.008c-8.192 8.192-20.48 8.192-28.672 0-8.192-8.192-8.192-20.48 0-28.672l71.68-71.68 2.048-2.048c4.096-6.144 10.24-8.192 16.384-8.192s16.384 4.096 20.48 8.192z m4.096 442.368v143.36h184.32c12.288 0 20.48 8.192 20.48 20.48s-8.192 20.48-20.48 20.48h-409.6c-12.288 0-20.48-8.192-20.48-20.48s8.192-20.48 20.48-20.48h184.32v-143.36h-378.88c-34.816 0-61.44-26.624-61.44-61.44v-512c0-34.816 26.624-61.44 61.44-61.44h798.72c34.816 0 61.44 26.624 61.44 61.44v512c0 34.816-26.624 61.44-61.44 61.44H532.48z m-18.432-40.96h397.312c12.288 0 20.48-8.192 20.48-20.48v-512c0-10.24-10.24-20.48-20.48-20.48h-798.72c-12.288 0-20.48 8.192-20.48 20.48v512c0 10.24 10.24 20.48 20.48 20.48H514.048c-2.048 0 0 0 0 0z" fill="#32373B" p-id="5611"></path></svg>