<?xml version="1.0" standalone="no"?><!DOCTYPE svg PUBLIC "-//W3C//DTD SVG 1.1//EN" "http://www.w3.org/Graphics/SVG/1.1/DTD/svg11.dtd"><svg t="1775279989699" class="icon" viewBox="0 0 1024 1024" version="1.1" xmlns="http://www.w3.org/2000/svg" p-id="10917" xmlns:xlink="http://www.w3.org/1999/xlink" width="200" height="200"><path d="M513 98.89c-229.2 0-415 185.8-415 415s185.8 415 415 415 415-185.8 415-415-185.8-415-415-415z m248.19 663.19c-32.26 32.26-69.8 57.57-111.59 75.25-43.23 18.29-89.19 27.56-136.6 27.56s-93.37-9.27-136.6-27.56c-41.79-17.68-79.33-42.99-111.59-75.25-32.26-32.26-57.57-69.8-75.25-111.59C171.28 607.26 162 561.3 162 513.89s9.27-93.37 27.56-136.6c17.68-41.79 42.99-79.33 75.25-111.59 32.26-32.26 69.8-57.57 111.59-75.25 43.23-18.29 89.19-27.56 136.6-27.56s93.37 9.27 136.6 27.56c41.79 17.68 79.33 42.99 111.59 75.25 32.26 32.26 57.57 69.8 75.25 111.59 18.29 43.23 27.56 89.19 27.56 136.6s-9.27 93.37-27.56 136.6c-17.68 41.79-42.99 79.34-75.25 111.59z" fill="#333333" p-id="10918"></path><path d="M654.81 334.68c-69.29 0-125.65 56.37-125.65 125.66h64c0-34 27.66-61.66 61.65-61.66 34 0 61.66 27.66 61.66 61.66h64c0-69.29-56.37-125.66-125.66-125.66zM511.33 686.47c-52.92 0-95.98-41.29-95.98-92.03h-64c0 86.04 71.77 156.03 159.98 156.03s159.98-70 159.98-156.03h-64c0 50.74-43.05 92.03-95.98 92.03zM431.71 460.33h64c0-69.29-56.37-125.66-125.65-125.66-69.29 0-125.66 56.37-125.66 125.66h64c0-34 27.66-61.66 61.66-61.66s61.65 27.67 61.65 61.66z" fill="#333333" p-id="10919"></path></svg>