<?xml version="1.0" standalone="no"?><!DOCTYPE svg PUBLIC "-//W3C//DTD SVG 1.1//EN" "http://www.w3.org/Graphics/SVG/1.1/DTD/svg11.dtd"><svg t="1775476178130" class="icon" viewBox="0 0 1024 1024" version="1.1" xmlns="http://www.w3.org/2000/svg" p-id="14905" xmlns:xlink="http://www.w3.org/1999/xlink" width="200" height="200"><path d="M344 750.016a41.984 41.984 0 1 1 0 84.032 41.984 41.984 0 0 1 0-84.032z m0-56a97.92 97.92 0 1 0-0.128 195.84 97.92 97.92 0 0 0 0.128-195.84zM161.984 848a14.08 14.08 0 0 1 14.016 14.016 14.08 14.08 0 0 1-14.016 14.016 14.08 14.08 0 0 1-14.016-14.08 14.08 14.08 0 0 1 14.08-13.952z m0-56a69.952 69.952 0 1 0 0 139.968 69.952 69.952 0 0 0 0-139.968z m712.512-289.792c8 17.28 12.352 36.672 12.352 56.96 0 75.264-60.544 136.32-135.168 136.32-23.04 0-44.736-5.888-63.744-16.128a3.2 3.2 0 0 0-4.096 0.896 184.448 184.448 0 0 1-305.216-24.064 3.2 3.2 0 0 0-4.16-1.28 129.728 129.728 0 0 1-56.448 12.928c-60.8 0-111.936-41.856-126.592-98.56a3.2 3.2 0 0 0-3.328-2.432A117.376 117.376 0 0 1 64 449.28c0-60.16 44.8-109.888 102.656-116.992a3.2 3.2 0 0 0 2.752-3.2A174.72 174.72 0 0 1 343.488 153.6c47.168 0 90.048 19.008 121.344 49.728a3.2 3.2 0 0 0 5.12-0.896 173.568 173.568 0 0 1 155.392-96.448 174.08 174.08 0 0 1 160.384 107.2 3.2 3.2 0 0 0 3.456 1.92 148.992 148.992 0 0 1 170.88 147.84c0 59.456-34.304 110.72-84.032 134.912-1.6 0.832-2.304 2.752-1.536 4.352z" fill="#8EA0DE" p-id="14906"></path></svg>