<?xml version="1.0" standalone="no"?><!DOCTYPE svg PUBLIC "-//W3C//DTD SVG 1.1//EN" "http://www.w3.org/Graphics/SVG/1.1/DTD/svg11.dtd"><svg t="1771405213014" class="icon" viewBox="0 0 1024 1024" version="1.1" xmlns="http://www.w3.org/2000/svg" p-id="5750" xmlns:xlink="http://www.w3.org/1999/xlink" width="200" height="200"><path d="M990.209406 977.509153c0 25.64303-20.810978 45.87277-46.477544 46.454008-38.789445 0.883113-47.800679-47.034223-47.800679-47.034223-22.019503-179.986257-172.460864-319.998081-357.091908-325.874929-3.971451 0.162706-7.896854 0.580215-11.915377 0.580215-4.018523 0-7.896854-0.441045-11.869329-0.580215-184.584995 5.922896-334.979284 145.888671-357.022323 325.874929 0 0-5.063319 47.034223-47.568389 47.034223-25.64303 0-46.454008-20.810978-46.454008-46.454008 0 0 0.836041-16.281825 2.972705-21.647019 23.342638-162.635077 130.280182-298.118771 276.308023-360.993774-85.777619-58.694797-142.149511-157.269883-142.149511-269.038456 0-179.939185 145.842623-325.805344 325.758272-325.805344 179.939185 0 325.805344 145.888671 325.805344 325.805344 0 111.745037-56.348356 210.274074-142.079926 268.991384 147.398048 63.432705 255.125585 200.86682 277.098016 365.57 1.184989 4.088108 2.02103 8.315386 2.02103 12.798491L990.209406 977.509153 990.209406 977.509153zM759.565399 325.945537c0-128.538515-104.150058-232.711086-232.711086-232.711086-128.514979 0-232.711086 104.172571-232.711086 232.711086 0 128.514979 104.196107 232.734622 232.711086 232.734622C655.41534 558.656623 759.565399 454.43698 759.565399 325.945537L759.565399 325.945537z" fill="#1296db" p-id="5751"></path></svg>