<?xml version="1.0" standalone="no"?><!DOCTYPE svg PUBLIC "-//W3C//DTD SVG 1.1//EN" "http://www.w3.org/Graphics/SVG/1.1/DTD/svg11.dtd"><svg t="1771410429606" class="icon" viewBox="0 0 1170 1024" version="1.1" xmlns="http://www.w3.org/2000/svg" p-id="6840" xmlns:xlink="http://www.w3.org/1999/xlink" width="228.515625" height="200"><path d="M658.285714 841.142857v43.885714c0 43.885714-29.257143 73.142857-73.142857 73.142858H146.285714c-43.885714 0-73.142857-29.257143-73.142857-73.142858V138.971429c0-43.885714 29.257143-73.142857 73.142857-73.142858h438.857143c43.885714 0 73.142857 29.257143 73.142857 73.142858v117.028571c0 21.942857 14.628571 36.571429 36.571429 36.571429s36.571429-14.628571 36.571428-36.571429V146.285714c0-80.457143-65.828571-146.285714-146.285714-146.285714H146.285714C65.828571 0 0 65.828571 0 146.285714v731.428572c0 80.457143 65.828571 146.285714 146.285714 146.285714h438.857143c80.457143 0 146.285714-65.828571 146.285714-146.285714v-109.714286c0-21.942857-14.628571-36.571429-36.571428-36.571429s-36.571429 14.628571-36.571429 36.571429v73.142857z" fill="#2c2c2c" p-id="6841"></path><path d="M1111.771429 482.742857l-204.8-204.8c-14.628571-14.628571-36.571429-14.628571-51.2 0s-14.628571 36.571429 0 51.2l146.285714 146.285714H373.028571c-21.942857 0-36.571429 14.628571-36.571428 36.571429s14.628571 36.571429 36.571428 36.571429h629.028572l-146.285714 146.285714c-14.628571 14.628571-14.628571 36.571429 0 51.2s36.571429 14.628571 51.2 0l204.8-204.8c14.628571-21.942857 14.628571-43.885714 0-58.514286z" fill="#2c2c2c" p-id="6842"></path></svg>